<svg width="95" height="48" viewBox="0 0 95 48" fill="none" xmlns="http://www.w3.org/2000/svg">
<path d="M12.1296 12.4476C8.04149 12.8777 4.55445 15.8829 3.52854 19.8673C2.25393 24.8103 4.87051 29.9036 9.63217 31.743C10.6166 32.1212 11.9793 32.3906 12.9327 32.3906C13.3006 32.3906 13.3835 32.3751 13.4715 32.287C13.627 32.1316 13.627 31.8569 13.4715 31.6963C13.3938 31.6186 13.2591 31.5875 12.8135 31.5512C10.969 31.4062 9.36792 30.888 8.05704 30.0176C7.44564 29.6134 7.26429 29.4683 6.72025 28.9295C5.00522 27.2455 4.08813 24.9658 4.08813 22.3854C4.08813 19.2145 5.51818 16.4632 8.03113 14.7844C9.32129 13.9295 11.0467 13.3699 12.8239 13.2455C13.2954 13.2093 13.3524 13.1937 13.4819 13.059C13.6684 12.8777 13.6633 12.7326 13.4767 12.5409C13.3316 12.401 13.3006 12.3906 12.943 12.3958C12.7358 12.401 12.3679 12.4269 12.1296 12.4476Z" fill="#FAFAFA"/>
<path d="M12.202 15.6894C10.6787 15.9226 9.38334 16.5651 8.3678 17.5962C7.42479 18.5495 6.86521 19.5858 6.56987 20.9589C6.47661 21.3889 6.45588 21.6583 6.45588 22.3941C6.4507 23.363 6.50769 23.762 6.76676 24.5858C7.25899 26.1298 8.30044 27.4355 9.68904 28.249C10.6217 28.793 11.9533 29.1661 13.0466 29.1868C13.4507 29.1972 13.5958 29.0884 13.5958 28.7879C13.5958 28.5184 13.4507 28.42 13.0155 28.3837C11.9222 28.2905 11.1087 28.0625 10.3056 27.6272C8.27971 26.5133 7.02583 24.192 7.25381 21.9744C7.48697 19.6842 8.59578 18.0107 10.4922 17.078C12.3782 16.1506 14.6683 16.2697 16.4662 17.3785C16.9844 17.6998 17.7512 18.4304 18.0776 18.9174C18.632 19.7361 19.0155 20.8138 19.1243 21.85C19.1968 22.5392 19.2072 22.5858 19.3263 22.705C19.4714 22.85 19.7149 22.8397 19.8704 22.6791C19.9844 22.5703 19.9999 22.5081 19.9999 22.2024C19.9999 21.4873 19.746 20.363 19.4248 19.6583C18.6165 17.8708 17.1709 16.5599 15.3315 15.9485C14.3471 15.6169 13.2486 15.5288 12.202 15.6894Z" fill="#FAFAFA"/>
<path d="M12.7254 18.824C11.9171 18.9329 11.2746 19.2541 10.6425 19.8862C10.2902 20.2334 10.1814 20.3836 9.98446 20.793C9.51814 21.7619 9.47151 22.6634 9.83939 23.7101C10.114 24.4976 10.7254 25.1867 11.4871 25.5702C12.1451 25.8966 12.5959 25.9899 13.3886 25.9536C13.9067 25.9329 14.0881 25.9018 14.4404 25.7774C15.0415 25.5598 15.399 25.3266 15.8238 24.8759C17.0466 23.5805 17.1192 21.4976 15.9896 20.1194C15.2073 19.166 13.943 18.6634 12.7254 18.824ZM13.8808 19.7256C15.4249 20.0935 16.3368 21.7463 15.829 23.2593C15.2798 24.8914 13.5026 25.6323 11.9586 24.881C10.285 24.0676 9.90156 21.7671 11.2176 20.451C11.8912 19.7722 12.9067 19.4976 13.8808 19.7256Z" fill="#FAFAFA"/>
<path d="M0.233161 22.0407C0.0362694 22.1443 0 22.2479 0 22.678C0 24.3567 0.518135 26.4914 1.32124 28.1339C2.02591 29.5743 2.75648 30.6003 3.88083 31.7194C6.25907 34.0873 9.27979 35.4293 12.601 35.5847C13.285 35.621 13.2953 35.621 13.4404 35.4914C13.6425 35.3153 13.6477 35.0666 13.4508 34.8956C13.3368 34.7971 13.2487 34.7764 12.9896 34.7764C10.4352 34.7764 7.50777 33.7039 5.41451 32.0044C2.67358 29.7764 1.00518 26.4863 0.84456 22.9889C0.813472 22.2894 0.80829 22.2583 0.668394 22.1236C0.518135 21.9681 0.398964 21.9474 0.233161 22.0407Z" fill="#FAFAFA"/>
<path d="M33.2784 30V18.3636H37.4261C38.3314 18.3636 39.0814 18.5284 39.6761 18.858C40.2708 19.1875 40.7159 19.6383 41.0114 20.2102C41.3068 20.7784 41.4545 21.4186 41.4545 22.1307C41.4545 22.8466 41.3049 23.4905 41.0057 24.0625C40.7102 24.6307 40.2633 25.0814 39.6648 25.4148C39.0701 25.7443 38.322 25.9091 37.4205 25.9091H34.5682V24.4205H37.2614C37.8333 24.4205 38.2973 24.322 38.6534 24.125C39.0095 23.9242 39.2708 23.6515 39.4375 23.3068C39.6042 22.9621 39.6875 22.5701 39.6875 22.1307C39.6875 21.6913 39.6042 21.3011 39.4375 20.9602C39.2708 20.6193 39.0076 20.3523 38.6477 20.1591C38.2917 19.9659 37.822 19.8693 37.2386 19.8693H35.0341V30H33.2784ZM45.8381 30.1932C45.285 30.1932 44.785 30.0909 44.3381 29.8864C43.8911 29.678 43.5369 29.3769 43.2756 28.983C43.018 28.589 42.8892 28.1061 42.8892 27.5341C42.8892 27.0417 42.9839 26.6364 43.1733 26.3182C43.3627 26 43.6184 25.7481 43.9403 25.5625C44.2623 25.3769 44.6222 25.2367 45.0199 25.142C45.4176 25.0473 45.8229 24.9754 46.2358 24.9261C46.7585 24.8655 47.1828 24.8163 47.5085 24.7784C47.8343 24.7367 48.071 24.6705 48.2188 24.5795C48.3665 24.4886 48.4403 24.3409 48.4403 24.1364V24.0966C48.4403 23.6004 48.3002 23.2159 48.0199 22.9432C47.7434 22.6705 47.3305 22.5341 46.7812 22.5341C46.2093 22.5341 45.7585 22.661 45.429 22.9148C45.1032 23.1648 44.8778 23.4432 44.7528 23.75L43.1562 23.3864C43.3456 22.8561 43.6222 22.428 43.9858 22.1023C44.3532 21.7727 44.7756 21.5341 45.2528 21.3864C45.7301 21.2348 46.232 21.1591 46.7585 21.1591C47.107 21.1591 47.4763 21.2008 47.8665 21.2841C48.2604 21.3636 48.6278 21.5114 48.9688 21.7273C49.3134 21.9432 49.5956 22.2519 49.8153 22.6534C50.035 23.0511 50.1449 23.5682 50.1449 24.2045V30H48.4858V28.8068H48.4176C48.3078 29.0265 48.143 29.2424 47.9233 29.4545C47.7036 29.6667 47.4214 29.8428 47.0767 29.983C46.732 30.1231 46.3191 30.1932 45.8381 30.1932ZM46.2074 28.8295C46.6771 28.8295 47.0786 28.7367 47.4119 28.5511C47.7491 28.3655 48.0047 28.1231 48.179 27.8239C48.357 27.5208 48.446 27.197 48.446 26.8523V25.7273C48.3854 25.7879 48.268 25.8447 48.0938 25.8977C47.9233 25.947 47.7282 25.9905 47.5085 26.0284C47.2888 26.0625 47.0748 26.0947 46.8665 26.125C46.6581 26.1515 46.4839 26.1742 46.3438 26.1932C46.0142 26.2348 45.7131 26.3049 45.4403 26.4034C45.1714 26.5019 44.9555 26.6439 44.7926 26.8295C44.6335 27.0114 44.554 27.2538 44.554 27.5568C44.554 27.9773 44.7093 28.2955 45.0199 28.5114C45.3305 28.7235 45.7263 28.8295 46.2074 28.8295ZM54.1065 24.8182V30H52.4077V21.2727H54.0384V22.6932H54.1463C54.3471 22.2311 54.6615 21.8598 55.0895 21.5795C55.5213 21.2992 56.0649 21.1591 56.7202 21.1591C57.3149 21.1591 57.8357 21.2841 58.2827 21.5341C58.7296 21.7803 59.0762 22.1477 59.3224 22.6364C59.5687 23.125 59.6918 23.7292 59.6918 24.4489V30H57.9929V24.6534C57.9929 24.0208 57.8281 23.5265 57.4986 23.1705C57.169 22.8106 56.7164 22.6307 56.1406 22.6307C55.7467 22.6307 55.3963 22.7159 55.0895 22.8864C54.7865 23.0568 54.5459 23.3068 54.3679 23.6364C54.1937 23.9621 54.1065 24.3561 54.1065 24.8182ZM65.2372 30.1705C64.5327 30.1705 63.9039 29.9905 63.3509 29.6307C62.8016 29.267 62.3698 28.75 62.0554 28.0795C61.7448 27.4053 61.5895 26.5966 61.5895 25.6534C61.5895 24.7102 61.7467 23.9034 62.0611 23.233C62.3793 22.5625 62.8149 22.0492 63.3679 21.6932C63.9209 21.3371 64.5478 21.1591 65.2486 21.1591C65.7902 21.1591 66.2259 21.25 66.5554 21.4318C66.8887 21.6098 67.1463 21.8182 67.3281 22.0568C67.5137 22.2955 67.6577 22.5057 67.7599 22.6875H67.8622V18.3636H69.5611V30H67.902V28.642H67.7599C67.6577 28.8277 67.5099 29.0398 67.3168 29.2784C67.1274 29.517 66.866 29.7254 66.5327 29.9034C66.1993 30.0814 65.7675 30.1705 65.2372 30.1705ZM65.6122 28.7216C66.1009 28.7216 66.5137 28.5928 66.8509 28.3352C67.1918 28.0739 67.4493 27.7121 67.6236 27.25C67.8016 26.7879 67.8906 26.25 67.8906 25.6364C67.8906 25.0303 67.8035 24.5 67.6293 24.0455C67.455 23.5909 67.1993 23.2367 66.8622 22.983C66.5251 22.7292 66.1084 22.6023 65.6122 22.6023C65.1009 22.6023 64.6747 22.7348 64.3338 23C63.9929 23.2652 63.7353 23.6269 63.5611 24.0852C63.3906 24.5436 63.3054 25.0606 63.3054 25.6364C63.3054 26.2197 63.3925 26.7443 63.5668 27.2102C63.741 27.6761 63.9986 28.0455 64.3395 28.3182C64.6842 28.5871 65.1084 28.7216 65.6122 28.7216ZM75.7472 30.1761C74.8873 30.1761 74.1468 29.9924 73.5256 29.625C72.9081 29.2538 72.4309 28.733 72.0938 28.0625C71.7604 27.3883 71.5938 26.5985 71.5938 25.6932C71.5938 24.7992 71.7604 24.0114 72.0938 23.3295C72.4309 22.6477 72.9006 22.1155 73.5028 21.733C74.1089 21.3504 74.8172 21.1591 75.6278 21.1591C76.1203 21.1591 76.5975 21.2405 77.0597 21.4034C77.5218 21.5663 77.9366 21.822 78.304 22.1705C78.6714 22.5189 78.9612 22.9716 79.1733 23.5284C79.3854 24.0814 79.4915 24.7538 79.4915 25.5455V26.1477H72.554V24.875H77.8267C77.8267 24.428 77.7358 24.0322 77.554 23.6875C77.3722 23.339 77.1165 23.0644 76.7869 22.8636C76.4612 22.6629 76.0786 22.5625 75.6392 22.5625C75.1619 22.5625 74.7453 22.6799 74.3892 22.9148C74.0369 23.1458 73.7642 23.4489 73.571 23.8239C73.3816 24.1951 73.2869 24.5985 73.2869 25.0341V26.0284C73.2869 26.6117 73.3892 27.108 73.5938 27.517C73.8021 27.9261 74.0919 28.2386 74.4631 28.4545C74.8343 28.6667 75.268 28.7727 75.7642 28.7727C76.0862 28.7727 76.3797 28.7273 76.6449 28.6364C76.91 28.5417 77.1392 28.4015 77.3324 28.2159C77.5256 28.0303 77.6733 27.8011 77.7756 27.5284L79.3835 27.8182C79.2547 28.2917 79.0237 28.7064 78.6903 29.0625C78.3608 29.4148 77.946 29.6894 77.446 29.8864C76.9498 30.0795 76.3835 30.1761 75.7472 30.1761ZM81.3764 30V21.2727H83.0071V22.6932H83.1151C83.2969 22.2121 83.5942 21.8371 84.0071 21.5682C84.42 21.2955 84.9143 21.1591 85.4901 21.1591C86.0734 21.1591 86.562 21.2955 86.956 21.5682C87.3537 21.8409 87.6473 22.2159 87.8366 22.6932H87.9276C88.1359 22.2273 88.4673 21.8561 88.9219 21.5795C89.3764 21.2992 89.9181 21.1591 90.5469 21.1591C91.3385 21.1591 91.9844 21.4072 92.4844 21.9034C92.9882 22.3996 93.2401 23.1477 93.2401 24.1477V30H91.5412V24.3068C91.5412 23.7159 91.3802 23.2879 91.0582 23.0227C90.7363 22.7576 90.3518 22.625 89.9048 22.625C89.3518 22.625 88.9219 22.7955 88.6151 23.1364C88.3082 23.4735 88.1548 23.9072 88.1548 24.4375V30H86.4616V24.1989C86.4616 23.7254 86.3139 23.3447 86.0185 23.0568C85.723 22.7689 85.3385 22.625 84.8651 22.625C84.5431 22.625 84.2457 22.7102 83.973 22.8807C83.7041 23.0473 83.4863 23.2803 83.3196 23.5795C83.1567 23.8788 83.0753 24.2254 83.0753 24.6193V30H81.3764Z" fill="white"/>
</svg>
