<svg width="20" height="24" viewBox="0 0 20 24" fill="none" xmlns="http://www.w3.org/2000/svg">
<path d="M12.1296 0.0530872C8.04149 0.483139 4.55445 3.48832 3.52854 7.47278C2.25393 12.4158 4.87051 17.509 9.63217 19.3484C10.6166 19.7267 11.9793 19.9961 12.9327 19.9961C13.3006 19.9961 13.3835 19.9805 13.4715 19.8925C13.627 19.737 13.627 19.4624 13.4715 19.3018C13.3938 19.2241 13.2591 19.193 12.8135 19.1567C10.969 19.0116 9.36792 18.4935 8.05704 17.623C7.44564 17.2189 7.26429 17.0738 6.72025 16.535C5.00522 14.851 4.08813 12.5712 4.08813 9.99091C4.08813 6.81993 5.51818 4.06863 8.03113 2.38988C9.32129 1.53495 11.0467 0.975367 12.8239 0.851015C13.2954 0.814745 13.3524 0.799202 13.4819 0.664486C13.6684 0.483139 13.6633 0.338062 13.4767 0.146351C13.3316 0.00645447 13.3006 -0.00390816 12.943 0.00127411C12.7358 0.00645447 12.3679 0.032362 12.1296 0.0530872Z" fill="#FAFAFA"/>
<path d="M12.202 3.29489C10.6787 3.52805 9.38334 4.17054 8.3678 5.20162C7.42479 6.15499 6.86521 7.19126 6.56987 8.56432C6.47661 8.99437 6.45588 9.2638 6.45588 9.99955C6.4507 10.9685 6.50769 11.3674 6.76676 12.1913C7.25899 13.7353 8.30044 15.041 9.68904 15.8545C10.6217 16.3985 11.9533 16.7716 13.0466 16.7923C13.4507 16.8027 13.5958 16.6939 13.5958 16.3933C13.5958 16.1239 13.4507 16.0255 13.0155 15.9892C11.9222 15.8959 11.1087 15.6679 10.3056 15.2327C8.27971 14.1187 7.02583 11.7975 7.25381 9.57986C7.48697 7.28971 8.59578 5.61613 10.4922 4.68349C12.3782 3.75603 14.6683 3.8752 16.4662 4.98401C16.9844 5.30525 17.7512 6.03582 18.0776 6.52287C18.632 7.34152 19.0155 8.41924 19.1243 9.45551C19.1968 10.1446 19.2072 10.1913 19.3263 10.3104C19.4714 10.4555 19.7149 10.4451 19.8704 10.2845C19.9844 10.1757 19.9999 10.1135 19.9999 9.80784C19.9999 9.09282 19.746 7.96846 19.4248 7.2638C18.6165 5.47624 17.1709 4.16536 15.3315 3.55396C14.3471 3.22235 13.2486 3.13427 12.202 3.29489Z" fill="#FAFAFA"/>
<path d="M12.7254 6.42952C11.9171 6.53833 11.2746 6.85957 10.6425 7.49169C10.2902 7.83885 10.1814 7.9891 9.98446 8.39843C9.51814 9.36734 9.47151 10.2689 9.83939 11.3155C10.114 12.1031 10.7254 12.7922 11.4871 13.1756C12.1451 13.5021 12.5959 13.5953 13.3886 13.5591C13.9067 13.5383 14.0881 13.5072 14.4404 13.3829C15.0415 13.1653 15.399 12.9321 15.8238 12.4813C17.0466 11.186 17.1192 9.10309 15.9896 7.72486C15.2073 6.77149 13.943 6.2689 12.7254 6.42952ZM13.8808 7.33107C15.4249 7.69895 16.3368 9.3518 15.829 10.8648C15.2798 12.4969 13.5026 13.2378 11.9586 12.4865C10.285 11.673 9.90156 9.37252 11.2176 8.05646C11.8912 7.37771 12.9067 7.10309 13.8808 7.33107Z" fill="#FAFAFA"/>
<path d="M0.233161 9.64614C0.0362694 9.74977 0 9.85339 0 10.2834C0 11.9622 0.518135 14.0969 1.32124 15.7394C2.02591 17.1798 2.75648 18.2057 3.88083 19.3249C6.25907 21.6928 9.27979 23.0347 12.601 23.1902C13.285 23.2264 13.2953 23.2264 13.4404 23.0969C13.6425 22.9207 13.6477 22.672 13.4508 22.5011C13.3368 22.4026 13.2487 22.3819 12.9896 22.3819C10.4352 22.3819 7.50777 21.3094 5.41451 19.6099C2.67358 17.3819 1.00518 14.0917 0.84456 10.5943C0.813472 9.89484 0.80829 9.86376 0.668394 9.72904C0.518135 9.5736 0.398964 9.55288 0.233161 9.64614Z" fill="#FAFAFA"/>
</svg>
